<?xml version="1.0" encoding="UTF-8" standalone="no"?>
<svg
   xmlns:dc="http://purl.org/dc/elements/1.1/"
   xmlns:cc="http://creativecommons.org/ns#"
   xmlns:rdf="http://www.w3.org/1999/02/22-rdf-syntax-ns#"
   xmlns:svg="http://www.w3.org/2000/svg"
   xmlns="http://www.w3.org/2000/svg"
   xmlns:xlink="http://www.w3.org/1999/xlink"
   xmlns:sodipodi="http://sodipodi.sourceforge.net/DTD/sodipodi-0.dtd"
   xmlns:inkscape="http://www.inkscape.org/namespaces/inkscape"
   width="175"
   height="175"
   viewBox="0 0 264.58333 264.58334"
   version="1.1"
   id="svg8"
   inkscape:version="1.0.2 (e86c870879, 2021-01-15)"
   sodipodi:docname="weeb_web.svg"
   inkscape:export-filename="/home/anon/weeb2psp_logo.png"
   inkscape:export-xdpi="96"
   inkscape:export-ydpi="96">
  <defs
     id="defs2">
    <linearGradient
       inkscape:collect="always"
       id="linearGradient851">
      <stop
         style="stop-color:#000000;stop-opacity:1;"
         offset="0"
         id="stop847" />
      <stop
         style="stop-color:#000000;stop-opacity:0;"
         offset="1"
         id="stop849" />
    </linearGradient>
    <linearGradient
       inkscape:collect="always"
       xlink:href="#linearGradient851"
       id="linearGradient1066"
       x1="-0.1322915"
       y1="132.29141"
       x2="264.71564"
       y2="132.29141"
       gradientUnits="userSpaceOnUse" />
  </defs>
  <sodipodi:namedview
     id="base"
     pagecolor="#ffffff"
     bordercolor="#666666"
     borderopacity="1.0"
     inkscape:pageopacity="0.0"
     inkscape:pageshadow="2"
     inkscape:zoom="0.54638804"
     inkscape:cx="359.88254"
     inkscape:cy="574.22923"
     inkscape:document-units="px"
     inkscape:current-layer="layer1"
     inkscape:document-rotation="0"
     showgrid="false"
     showguides="true"
     inkscape:guide-bbox="true"
     units="px"
     inkscape:window-width="1916"
     inkscape:window-height="895"
     inkscape:window-x="0"
     inkscape:window-y="183"
     inkscape:window-maximized="1">
    <sodipodi:guide
       position="22.094907,264.58334"
       orientation="0,-1"
       id="guide833" />
    <sodipodi:guide
       position="0,232.56827"
       orientation="1,0"
       id="guide835" />
    <sodipodi:guide
       position="661.04355,334.4754"
       orientation="1,0"
       id="guide837" />
    <sodipodi:guide
       position="264.58333,248.40138"
       orientation="1,0"
       id="guide839" />
    <sodipodi:guide
       position="235.59777,0.00050667127"
       orientation="0,-1"
       id="guide841" />
    <sodipodi:guide
       position="63.384244,238.12501"
       orientation="0,-1"
       id="guide855" />
    <sodipodi:guide
       position="26.457299,169.1442"
       orientation="1,0"
       id="guide857" />
    <sodipodi:guide
       position="58.790209,26.458334"
       orientation="0,-1"
       id="guide859" />
    <sodipodi:guide
       position="238.125,72.878241"
       orientation="1,0"
       id="guide861" />
    <sodipodi:guide
       position="30.542838,132.29064"
       orientation="0,-1"
       id="guide858" />
    <sodipodi:guide
       position="132.29106,135.0291"
       orientation="1,0"
       id="guide860" />
  </sodipodi:namedview>
  <metadata
     id="metadata5">
    <rdf:RDF>
      <cc:Work
         rdf:about="">
        <dc:format>image/svg+xml</dc:format>
        <dc:type
           rdf:resource="http://purl.org/dc/dcmitype/StillImage" />
        <dc:title></dc:title>
      </cc:Work>
    </rdf:RDF>
  </metadata>
  <g
     inkscape:label="Layer 1"
     inkscape:groupmode="layer"
     id="layer1">
    <ellipse
       style="fill:#fbfbfb;fill-opacity:1;stroke:#000000;stroke-width:0.264583px;stop-color:#000000"
       id="path845-3"
       cx="132.42671"
       cy="132.67371"
       rx="132.29167"
       ry="132.29141"
       inkscape:export-filename="/home/anon/weeb_175.png"
       inkscape:export-xdpi="16.77"
       inkscape:export-ydpi="16.77" />
    <ellipse
       style="fill:url(#linearGradient1066);fill-opacity:1;stroke:#000000;stroke-width:0.264583px;stop-color:#000000"
       id="path845"
       cx="132.29167"
       cy="132.29141"
       rx="132.29167"
       ry="132.29141"
       inkscape:export-filename="/home/anon/weeb_175.png"
       inkscape:export-xdpi="16.77"
       inkscape:export-ydpi="16.77" />
    <ellipse
       style="fill:#000000;fill-opacity:1;stroke:#000000;stroke-width:0.264583px;stop-color:#000000"
       id="path865"
       cx="132.29115"
       cy="132.29166"
       rx="105.83385"
       ry="105.83333"
       inkscape:export-filename="/home/anon/weeb_175.png"
       inkscape:export-xdpi="16.77"
       inkscape:export-ydpi="16.77" />
    <g
       aria-label="Weeb"
       id="text855"
       style="font-size:88.1944px;line-height:1.25;font-family:Zrnic;-inkscape-font-specification:Zrnic;letter-spacing:0px;word-spacing:0px;stroke-width:0.264583">
      <path
         d="m 92.106123,101.71629 h 9.172217 l -9.348606,61.82427 H 76.760298 l -6.967357,-56.53261 h -0.705556 l -7.143746,56.53261 H 46.50962 l -9.084023,-61.82427 h 10.054161 l 6.790969,56.5326 h 0.529166 l 7.143746,-56.5326 h 14.993048 l 7.23194,56.5326 h 0.440972 z"
         style="font-size:88.1944px;fill:#ffffff;stroke-width:0.264583"
         id="path1141" />
      <path
         d="m 119.18165,143.07946 v -5.11528 h 5.02708 q 2.38124,0 3.79236,-0.35277 1.4993,-0.35278 2.29305,-1.05834 0.79375,-0.79375 1.05833,-2.02847 0.35278,-1.23472 0.35278,-3.0868 v -4.7625 q 0,-1.94028 -0.35278,-3.26319 -0.26458,-1.32292 -1.05833,-2.11667 -0.79375,-0.79375 -2.29305,-1.05833 -1.41112,-0.35278 -3.79236,-0.35278 h -3.70417 q -2.38125,0 -3.88055,0.35278 -1.41111,0.35278 -2.20486,1.41111 -0.79375,0.97014 -1.14653,2.82222 -0.26458,1.85208 -0.26458,4.7625 v 19.66735 q 0,2.91041 0.26458,4.7625 0.35278,1.85208 1.14653,2.91041 0.79375,0.97014 2.20486,1.32292 1.4993,0.35277 3.88055,0.35277 h 16.66874 v 5.29167 h -19.84374 q -3.96874,0 -6.52638,-0.79375 -2.55764,-0.79375 -4.14514,-2.55764 -1.4993,-1.85208 -2.11666,-4.6743 -0.52917,-2.82222 -0.52917,-6.96736 v -18.96179 q 0,-4.05695 0.52917,-6.87917 0.61736,-2.91041 2.11666,-4.6743 1.5875,-1.85208 4.14514,-2.64583 2.55764,-0.79375 6.52638,-0.79375 h 10.05416 q 3.96875,0 6.52639,0.79375 2.55764,0.70555 4.05694,2.20486 1.5875,1.41111 2.11667,3.61597 0.61736,2.11666 0.61736,4.93888 v 5.37986 q 0,2.82222 -0.61736,5.02708 -0.52917,2.11667 -2.11667,3.61597 -1.4993,1.41111 -4.05694,2.20486 -2.55764,0.70556 -6.52639,0.70556 z"
         style="font-size:88.1944px;fill:#ffffff;stroke-width:0.264583"
         id="path1143" />
      <path
         d="m 161.86767,143.07946 v -5.11528 h 5.02708 q 2.38125,0 3.79236,-0.35277 1.4993,-0.35278 2.29305,-1.05834 0.79375,-0.79375 1.05834,-2.02847 0.35277,-1.23472 0.35277,-3.0868 v -4.7625 q 0,-1.94028 -0.35277,-3.26319 -0.26459,-1.32292 -1.05834,-2.11667 -0.79375,-0.79375 -2.29305,-1.05833 -1.41111,-0.35278 -3.79236,-0.35278 h -3.70416 q -2.38125,0 -3.88056,0.35278 -1.41111,0.35278 -2.20486,1.41111 -0.79375,0.97014 -1.14653,2.82222 -0.26458,1.85208 -0.26458,4.7625 v 19.66735 q 0,2.91041 0.26458,4.7625 0.35278,1.85208 1.14653,2.91041 0.79375,0.97014 2.20486,1.32292 1.49931,0.35277 3.88056,0.35277 h 16.66874 v 5.29167 h -19.84374 q -3.96875,0 -6.52639,-0.79375 -2.55764,-0.79375 -4.14514,-2.55764 -1.4993,-1.85208 -2.11666,-4.6743 -0.52917,-2.82222 -0.52917,-6.96736 v -18.96179 q 0,-4.05695 0.52917,-6.87917 0.61736,-2.91041 2.11666,-4.6743 1.5875,-1.85208 4.14514,-2.64583 2.55764,-0.79375 6.52639,-0.79375 h 10.05416 q 3.96875,0 6.52638,0.79375 2.55764,0.70555 4.05695,2.20486 1.58749,1.41111 2.11666,3.61597 0.61736,2.11666 0.61736,4.93888 v 5.37986 q 0,2.82222 -0.61736,5.02708 -0.52917,2.11667 -2.11666,3.61597 -1.49931,1.41111 -4.05695,2.20486 -2.55763,0.70556 -6.52638,0.70556 z"
         style="font-size:88.1944px;fill:#ffffff;stroke-width:0.264583"
         id="path1145" />
      <path
         d="m 203.93634,119.88433 v -5.29166 h 9.96596 q 3.96875,0 6.52639,0.79375 2.55764,0.79375 4.05694,2.64583 1.5875,1.76389 2.11667,4.6743 0.61736,2.82222 0.61736,6.87917 v 18.96179 q 0,4.14514 -0.61736,6.96736 -0.52917,2.82222 -2.11667,4.6743 -1.4993,1.76389 -4.05694,2.55764 -2.55764,0.79375 -6.52639,0.79375 H 190.08982 V 99.952398 h 8.99582 v 58.296492 h 11.64166 q 2.38125,0 3.79236,-0.35277 1.49931,-0.35278 2.29306,-1.32292 0.79375,-1.05833 1.05833,-2.91041 0.35278,-1.85209 0.35278,-4.7625 v -19.66735 q 0,-2.91042 -0.35278,-4.7625 -0.26458,-1.85208 -1.05833,-2.82222 -0.79375,-1.05833 -2.29306,-1.41111 -1.41111,-0.35278 -3.79236,-0.35278 z"
         style="font-size:88.1944px;fill:#ffffff;stroke-width:0.264583"
         id="path1147" />
    </g>
  </g>
</svg>
